/* XPM */
static char *_cbed7aebac44e87f87703514e78f55cDomlsxsz4QQekeWY[] = {
/* columns rows colors chars-per-pixel */
"16 16 17 1 ",
"  c black",
". c #040404",
"X c gray2",
"o c #121313",
"O c #181919",
"+ c #272626",
"@ c #404140",
"# c #505050",
"$ c gray34",
"% c #767777",
"& c #7C7C7D",
"* c gray53",
"= c #888988",
"- c #8C8C8D",
"; c #939292",
": c #A7A7A7",
"> c #B9B8B9",
/* pixels */
"    .          .",
"           .   .",
"               .",
"               .",
"  .            X",
"      +=:&.    X",
"     O-#>-     X",
"      .=;      X",
"      .=;      X",
"      .=$      X",
"      X%o      X",
" ..   X@       X",
"      .  .     X",
"               X",
"               X",
"  .            ."
};
