/* XPM */
static char *_098fe103aa84903f6b1cb0c552d7643QADggirgOBrC70fG[] = {
/* columns rows colors chars-per-pixel */
"48 48 76 1 ",
"  c black",
". c #000001",
"X c #010000",
"o c gray5",
"O c #000100",
"+ c gray1",
"@ c #6F6F6F",
"# c gray69",
"$ c #B0B0B1",
"% c #9A9A9A",
"& c #111111",
"* c gray58",
"= c #C0C0C0",
"- c #1E1F1E",
"; c gray66",
": c #C3C3C3",
"> c #C3C3C2",
", c gray84",
"< c gray86",
"1 c gray9",
"2 c gray76",
"3 c #FCFCFD",
"4 c #040404",
"5 c #0D0D0C",
"6 c #070707",
"7 c #151515",
"8 c #636263",
"9 c gray82",
"0 c #0B0B0B",
"q c #606060",
"w c gray49",
"e c #020202",
"r c #010100",
"t c #0E0F0F",
"y c gray6",
"u c #0E0E0E",
"i c #090909",
"p c gray37",
"a c LightGray",
"s c gray24",
"d c gray68",
"f c #9D9D9D",
"g c #252525",
"h c #686868",
"j c #C8C8C8",
"k c gray94",
"l c #ACACAC",
"z c #101010",
"x c #A9A9A9",
"c c #DDDDDD",
"v c #E6E6E6",
"b c gray21",
"n c #989899",
"m c #F2F3F3",
"M c #E7E7E7",
"N c #F8F8F8",
"B c #D9D9D8",
"V c #020303",
"C c gray90",
"Z c #353535",
"A c #989898",
"S c gray65",
"D c gray33",
"F c #D0D0D0",
"G c #A7A6A6",
"H c #535353",
"J c #A5A5A5",
"K c #313131",
"L c #222222",
"P c #010101",
"I c #979797",
"U c gray47",
"Y c gray16",
"T c #353435",
"R c #1F1E1F",
"E c #565656",
/* pixels */
"                          .X          .        o",
"X      O     O                                 o",
" O           O X    .           .              o",
"       O    X           X                .     o",
"              .    O X                         o",
"X           X            O X .X  XO    X       o",
"     .        .         X                      o",
"                              X  X .           o",
"   X       .        .X    .         X .       Oo",
"              .      X     X    .              o",
"        .         X                      .     o",
"                     X      O     O            o",
"                                           O   o",
"X         O        O X     X       .           o",
"           .                         O    X    o",
"  . O             X+@##$##%&*=+            O   o",
"       O   .       -;::>:,<1234         O      5",
"        .  .     . 671111890qwe  X       .     o",
"                 rtyyu+iypayyy                Oo",
"       O        Osdddfghdjkddl+                o",
"X          .    zx<<cvbnmMN<<BV .      X       o",
"    O     O  O      5CZASDF       O X          o",
"    O               5CZnSDF             O   .  o",
"       O.   XO    X oCZASDF                    o",
"                    oCZAGDF     .          O   o",
"   X      O     O X oCZASDF  .                 o",
"     .              oCZASDF         X .X       o",
"      X             oCZASHJ    O       XO      o",
"                    oCZnSKL        .           o",
"     . O   .  .     5CZAS+P                    o",
"            X       oCZAI         O.     .X   Oo",
"                    oCZUY             .        o",
"  .                 oCZz    O    X  X  X     XOo",
"               X    oCT         .           . O5",
" O        O.   XO  OoaR                        o",
"           . O.X    oEe   .                 .  o",
"  .                     X                      o",
"            X .          O        O.           o",
"    O           O                X             o",
"      X  X  X                        O   .     o",
"    O             X .    O     O  O            o",
"X    . O.    O   .             O             X o",
"  .  . O X                               .     o",
"             O XO.X      O          X          o",
"            X  X          . O.                 o",
"         X   O         . O     O.X       .X    o",
"                 .       O  O          X       o",
"   X .   X       .           .                 o"
};
